<svg id="visual" width="1400" height="720" xmlns="http://www.w3.org/2000/svg" version="1.1"><g stroke-width="40" stroke-linejoin="bevel" stroke="#000"><path d="m701 327.3-8-61.5-56 62.5Z" fill="#381d00"/><path d="m693 265.8-56-1v63.5ZM556 327.3l71 62.4 10-61.4Z" fill="#6f4e03"/><path d="m637 328.3 69 67.4-5-68.4Z" fill="#876403"/><path d="m627 389.7 79 6-69-67.4Z" fill="#6f4e03"/><path d="m706 395.7 62-64.4-67-4Z" fill="#876403"/><path d="m701 327.3 69-66.5-77 5Z" fill="#301300"/><path d="m770 260.8-75-61.4-2 66.4Z" fill="#2a0700"/><path d="m693 265.8 2-66.4-58 65.4Z" fill="#644403"/><path d="m768 331.3 2-70.5-69 66.5Z" fill="#412600"/><path d="m695 199.4-58-6v71.4Z" fill="#301300"/><path d="m559 262.8-3 64.5 81 1Z" fill="#644403"/><path d="m559 262.8 78 65.5v-63.5Z" fill="#4c3000"/><path d="m637 193.4-78 69.4 78 2Z" fill="#2a0700"/><path d="m706 395.7 68-4-6-60.4Z"/><path d="m768 331.3 64-10-62-60.5Z" fill="#583a02"/><path d="m556 327.3-1 60.4 72 2Z" fill="#2a0700"/><path d="m627 456.2 77 1 2-61.5Z" fill="#381d00"/><path d="m770 260.8-3-66.4-72 5Z" fill="#412600"/><path d="m695 199.4 9-71.5-67 65.5Z" fill="#301300"/><path d="M637 193.4h-83l5 69.4Z" fill="#4c3000"/><path d="m559 262.8-66 70.5 63-6Z" fill="#6f4e03"/><path d="m556 327.3-63 6 62 54.4Z" fill="#381d00"/><path d="m627 456.2 79-60.5-79-6Z" fill="#876403"/><path d="m706 395.7 61 55.5 7-59.5Z"/><path d="m560 462.2 67-6v-66.5Z" fill="#644403"/><path d="m774 391.7 58-70.4-64 10Z" fill="#6f4e03"/><path d="m770 260.8 71-60.4-74-6Z" fill="#412600"/><path d="m767 194.4-63-66.5-9 71.5Z" fill="#644403"/><path d="m637 193.4-11-67.5-72 67.5Z" fill="#7b5903"/><path d="m832 321.3 9-61.5-71 1Z" fill="#301300"/><path d="m767 194.4-3-66.5h-60ZM483 261.8l10 71.5 66-70.5Z" fill="#2a0700"/><path d="m555 387.7 5 74.5 67-72.5Z" fill="#876403"/><path d="m704 127.9-78-2 11 67.5Z" fill="#583a02"/><path d="m704 457.2 63-6-61-55.5Z" fill="#412600"/><path d="m774 391.7 67-4-9-66.4Z" fill="#301300"/><path d="m493 195.4-10 66.4 76 1ZM836 463.2l5-75.5-67 4Z" fill="#4c3000"/><path d="m832 321.3 76 8-67-69.5Z"/><path d="m495 460.2 65 2-5-74.5Z" fill="#6f4e03"/><path d="M627 456.2v63.4l77-62.4Z" fill="#583a02"/><path d="m841 200.4-77-72.5 3 66.5Z" fill="#876403"/><path d="m704 127.9-10-69.4-68 67.4Z" fill="#6f4e03"/><path d="M841 259.8v-59.4l-71 60.4Z" fill="#4c3000"/><path d="m484 136.9 9 58.5 61-2Z" fill="#6f4e03"/><path d="m554 193.4-61 2 66 67.4ZM626 125.9l-71 2-1 65.5Z" fill="#301300"/><path d="m424 321.3 58 74.4 11-62.4Z" fill="#7b5903"/><path d="m493 333.3-11 62.4 73-8ZM561 530.6l66-11-67-57.4Z" fill="#412600"/><path d="m560 462.2 67 57.4v-63.4Z" fill="#7b5903"/><path d="m704 457.2 58 66.4 5-72.4Z" fill="#4c3000"/><path d="m627 519.6 76 7 1-69.4Z" fill="#7b5903"/><path d="m767 451.2 69 12-62-71.5Z" fill="#876403"/><path d="m762 523.6 74-60.4-69-12Z" fill="#412600"/><path d="m482 395.7 13 64.5 60-72.5Z" fill="#6f4e03"/><path d="m916 399.7-8-70.4-67 58.4Z" fill="#381d00"/><path d="m841 387.7 67-58.4-76-8Z" fill="#2a0700"/><path d="m841 259.8 69-64.4-69 5Z" fill="#6f4e03"/><path d="m703 526.6 59-3-58-66.4Z" fill="#876403"/><path d="m772 69.5-68 58.4h60Z"/><path d="m772 69.5-78-11 10 69.4Z" fill="#4c3000"/><path d="m626 125.9-63-53.4-8 55.4Z" fill="#644403"/><path d="m694 58.5-68 1v66.4Z" fill="#876403"/><path d="m412 266.8 12 54.5 59-59.5Z" fill="#412600"/><path d="m483 261.8-59 59.5 69 12Z" fill="#4c3000"/><path d="m482 395.7-69 54.5 82 10Z" fill="#876403"/><path d="m555 127.9-71 9 70 56.5Z" fill="#412600"/><path d="m413 203.4-1 63.4 71-5Z" fill="#2a0700"/><path d="m496 59.5-12 77.4 71-9Z" fill="#583a02"/><path d="m908 329.3 5-61.5-72-8Z" fill="#7b5903"/><path d="m841 200.4 6-76.5-83 4Z" fill="#301300"/><path d="m910 195.4-63-71.5-6 76.5Z" fill="#2a0700"/><path d="m626 59.5-63 13 63 53.4Z" fill="#4c3000"/><path d="m847 123.9-75-54.4-8 58.4Z" fill="#301300"/><path d="m495 460.2 66 70.4-1-68.4ZM627 519.6l8 64.5 68-57.5Z" fill="#4c3000"/><path d="m413 203.4 70 58.4 10-66.4Z" fill="#7b5903"/><path d="m913 267.8-3-72.4-69 64.4Z" fill="#4c3000"/><path d="M424 321.3v76.4l58-2Z" fill="#2a0700"/><path d="m495 460.2-10 67.4 76 3Z" fill="#301300"/><path d="m351 319.3 73 78.4v-76.4Z" fill="#644403"/><path d="m915 451.2-74-63.5-5 75.5Z"/><path d="m915 451.2 1-51.5-75-12Z" fill="#2a0700"/><path d="m987 327.3-5-60.5-69 1Z" fill="#301300"/><path d="m484 136.9-71 66.5 80-8Z" fill="#4c3000"/><path d="m776 589.1 63-61.5-77-4Z"/><path d="m762 523.6 77 4-3-64.4Z" fill="#301300"/><path d="m694 588.1 68-64.5-59 3Z" fill="#6f4e03"/><path d="m561 530.6 74 53.5-8-64.5Z" fill="#4c3000"/><path d="m635 584.1 59 4 9-61.5Z" fill="#6f4e03"/><path d="m907 530.6 8-79.4-79 12Z" fill="#381d00"/><path d="m847 123.9-13-61.4-62 7Z" fill="#876403"/><path d="M704 0h-67l57 58.5Z" fill="#7b5903"/><path d="M905 62.5h-71l13 61.4Z" fill="#583a02"/><path d="m419 520.6 66 7 10-67.4ZM561 530.6l-3 52.5 77 1Z" fill="#301300"/><path d="m557 0-61 59.5 67 13Z" fill="#2a0700"/><path d="m563 72.5-67-13 59 68.4Z" fill="#7b5903"/><path d="m484 136.9-62-8-9 74.5Z" fill="#301300"/><path d="m557 0 6 72.5 63-13Z" fill="#583a02"/><path d="m345 395.7 68 54.5 11-52.5Z" fill="#644403"/><path d="m424 397.7-11 52.5 69-54.5Z" fill="#301300"/><path d="m980 135.9-68-11-2 70.5Z" fill="#7b5903"/><path d="m910 195.4 2-70.5-65-1Z" fill="#876403"/><path d="m985 197.4-75-2 3 72.4Z" fill="#381d00"/><path d="m496 59.5-74 69.4 62 8Z" fill="#876403"/><path d="m704 0-10 58.5L768 0Z"/><path d="M694 58.5 637 0l-11 59.5Z" fill="#6f4e03"/><path d="m768 0-74 58.5 78 11Z" fill="#381d00"/><path d="m485 527.6 73 55.5 3-52.5Z" fill="#876403"/><path d="m635 584.1 59 70.4v-66.4Z" fill="#6f4e03"/><path d="m694 588.1 82 1-14-65.5Z" fill="#2a0700"/><path d="m987 327.3-79 2 78 60.4Z"/><path d="m987 327.3-74-59.5-5 61.5Z" fill="#4c3000"/><path d="M834 62.5 768 0l4 69.5Z" fill="#381d00"/><path d="M846 0h-78l66 62.5Z" fill="#412600"/><path d="m413 203.4-59 60.4 58 3Z" fill="#644403"/><path d="m412 266.8-61 52.5 73 2ZM346 188.4l8 75.4 59-60.4Z" fill="#876403"/><path d="m354 263.8-3 55.5 61-52.5Z" fill="#583a02"/><path d="m986 389.7-78-60.4 8 70.4Z" fill="#644403"/><path d="M637 0h-80l69 59.5Z" fill="#7b5903"/><path d="m353 133.9 60 69.5 9-74.5Z" fill="#6f4e03"/><path d="M986 450.2v-60.5l-70 10Z" fill="#2a0700"/><path d="m986 450.2-70-50.5-1 51.5Z" fill="#2a0700"/><path d="m907 530.6-71-67.4 3 64.4Z"/><path d="m843 591.1 64-60.5-68-3Z" fill="#6f4e03"/><path d="m1044 192.4-59 5-3 69.4Z" fill="#583a02"/><path d="m982 266.8 3-69.4-72 70.4Z" fill="#7b5903"/><path d="m345 519.6 74 1-6-70.4Z" fill="#4c3000"/><path d="m413 450.2 6 70.4 76-60.4Z" fill="#583a02"/><path d="m485 527.6-1 62.5 74-7Z" fill="#412600"/><path d="m973 64.5-68-2 7 62.4Z" fill="#7b5903"/><path d="m912 124.9-7-62.4-58 61.4Z" fill="#7b5903"/><path d="m273 321.3 72 74.4 6-76.4Z" fill="#876403"/><path d="m351 319.3-6 76.4 79 2Z" fill="#301300"/><path d="m842 654.5 1-63.4-67-2Z" fill="#412600"/><path d="m776 589.1 67 2-4-63.5Z" fill="#6f4e03"/><path d="m417 63.5 5 65.4 74-69.4Z" fill="#2a0700"/><path d="m353 133.9-7 54.5 67 15Z" fill="#876403"/><path d="m354 263.8-71-5 68 60.5Z" fill="#583a02"/><path d="m419 591.1 65-1 1-62.5Z" fill="#4c3000"/><path d="m558 583.1 64 65.4 13-64.4Z" fill="#7b5903"/><path d="m694 588.1 72 68.4 10-67.4ZM423 0l-6 63.5 79-4Z" fill="#381d00"/><path d="M557 0h-60l-1 59.5ZM905 62.5 846 0l-12 62.5Z"/><path d="m978 521.6 8-71.4-71 1Z" fill="#7b5903"/><path d="m1054 387.7 1-58.4-68-2Z" fill="#644403"/><path d="m552 656.5 70-8-64-65.4Z" fill="#583a02"/><path d="m985 197.4-5-61.5-70 59.5Z" fill="#644403"/><path d="M905 62.5 913 0h-67Z" fill="#301300"/><path d="m622 648.5 72 6-59-70.4Z" fill="#876403"/><path d="m345 395.7 1 55.5 67-1ZM419 520.6v70.5l66-63.5Z" fill="#2a0700"/><path d="m417 63.5-64 70.4 69-5Z" fill="#583a02"/><path d="m694 654.5 72 2-72-68.4Z" fill="#381d00"/><path d="m484 590.1 68 66.4 6-73.4Z"/><path d="M632 720h68l-6-65.5Z" fill="#644403"/><path d="m694 654.5 6 65.5 66-63.5Z" fill="#4c3000"/><path d="m979 596.1-1-74.5-71 9Z" fill="#876403"/><path d="m907 530.6 71-9-63-70.4Z" fill="#6f4e03"/><path d="m913 596.1-6-65.5-64 60.5Z" fill="#876403"/><path d="m349 586.1 70 5v-70.5ZM484 590.1l-2 63.4 70 3Z" fill="#4c3000"/><path d="m910 649.5 3-53.4-70-5Z" fill="#412600"/><path d="m980 135.9-7-71.4-61 60.4Z" fill="#4c3000"/><path d="M973 64.5 913 0l-8 62.5Z" fill="#644403"/><path d="m1054 387.7-67-60.4-1 62.4Z" fill="#2a0700"/><path d="m987 327.3 68-60.5h-73Z" fill="#583a02"/><path d="m985 197.4 59-5-64-56.5Z" fill="#876403"/><path d="m980 135.9 69-65.4-76-6Z"/><path d="m1054 387.7-68 2v60.5Z" fill="#381d00"/><path d="m277 192.4 6 66.4 63-70.4Z" fill="#2a0700"/><path d="m346 188.4-63 70.4 71 5Z" fill="#7b5903"/><path d="m345 395.7-70-2 71 57.5ZM1055 329.3v-62.5l-68 60.5Z" fill="#301300"/><path d="M497 0h-74l73 59.5ZM417 63.5l-65-6 1 76.4Z" fill="#2a0700"/><path d="m284 122.9-7 69.5 69-4Z" fill="#876403"/><path d="m1055 266.8-11-74.4-62 74.4Z" fill="#644403"/><path d="m278 462.2 67 57.4 1-68.4Z" fill="#4c3000"/><path d="m346 451.2-1 68.4 68-69.4Z"/><path d="m766 656.5 76-2-66-65.4Z" fill="#583a02"/><path d="m1047 464.2 7-76.5-68 62.5Z" fill="#4c3000"/><path d="m283 258.8-10 62.5 78-2Z" fill="#6f4e03"/><path d="m356 0-4 57.5 65 6Z" fill="#876403"/><path d="m419 656.5 63-3-63-62.4Z" fill="#7b5903"/><path d="m419 591.1 63 62.4 2-63.4Z" fill="#4c3000"/><path d="m273 321.3 2 72.4 70 2Z" fill="#7b5903"/><path d="m284 122.9 62 65.5 7-54.5Z" fill="#644403"/><path d="m203 260.8 7 71.5 63-11Z" fill="#4c3000"/><path d="m1056 527.6-9-63.4-69 57.4Z" fill="#6f4e03"/><path d="m978 521.6 69-57.4-61-14Z" fill="#301300"/><path d="m1044 192.4 4-66.5-68 10Z" fill="#412600"/><path d="M973 64.5 983 0h-70Z"/><path d="m1117 134.9-69-9-4 66.5Z" fill="#876403"/><path d="m632 720 62-65.5-72-6Z" fill="#301300"/><path d="m766 656.5 75 63.5 1-65.5Z" fill="#4c3000"/><path d="m632 720-10-71.5-63 71.5Z" fill="#876403"/><path d="m559 720 63-71.5-70 8Z" fill="#2a0700"/><path d="m275 393.7 3 68.5 68-11Z" fill="#4c3000"/><path d="m345 519.6 4 66.5 70-65.5Z" fill="#301300"/><path d="m352 57.5-68 65.4 69 11Z" fill="#4c3000"/><path d="m842 654.5 68-5-67-58.4Z" fill="#644403"/><path d="M913 596.1h66l-72-65.5Z" fill="#7b5903"/><path d="m914 720-4-70.5-68 5Z" fill="#301300"/><path d="m279 524.6 70 61.5-4-66.5Z"/><path d="m976 650.5 3-54.4h-66ZM700 720h68l-2-63.5ZM423 0h-67l61 63.5Z" fill="#7b5903"/><path d="m352 57.5-67 10-1 55.4Z" fill="#301300"/><path d="M486 720h73l-7-63.5Z" fill="#381d00"/><path d="m486 720 66-63.5-70-3Z" fill="#2a0700"/><path d="M1049 70.5 983 0l-10 64.5Z" fill="#412600"/><path d="m356 658.5 63-2v-65.4Z" fill="#876403"/><path d="m1121 68.5-72 2-1 55.4Z" fill="#381d00"/><path d="m1048 125.9 1-55.4-69 65.4Z" fill="#876403"/><path d="m1121 388.7-6-61.4-61 60.4Z" fill="#644403"/><path d="m1054 387.7 61-60.4-60 2Z" fill="#644403"/><path d="m1055 329.3 60-2-60-60.5Z" fill="#412600"/><path d="m1055 266.8 61-11-72-63.4Z" fill="#644403"/><path d="M285 0v67.5l67-10Z" fill="#7b5903"/><path d="m217 195.4 66 63.4-6-66.4Z" fill="#876403"/><path d="m1044 582.1 12-54.5-78-6Z" fill="#2a0700"/><path d="m1114 454.2 7-65.5-67-1Z" fill="#583a02"/><path d="m278 462.2 1 62.4 66-5Z" fill="#7b5903"/><path d="m349 586.1 7 72.4 63-67.4Z" fill="#6f4e03"/><path d="m217 453.2 62 71.4-1-62.4Z" fill="#412600"/><path d="m1115 327.3 1-71.5-61 11Z" fill="#2a0700"/><path d="M768 720h73l-75-63.5Z"/><path d="m910 649.5 66 1-63-54.4Z" fill="#412600"/><path d="m979 596.1 65-14-66-60.5Z" fill="#301300"/><path d="m420 720 62-66.5-63 3Z"/><path d="M420 720h66l-4-66.5Z" fill="#381d00"/><path d="m273 321.3-63 11 65 61.4Z" fill="#876403"/><path d="m275 393.7-58 59.5 61 9Z" fill="#6f4e03"/><path d="m203 260.8 70 60.5 10-62.5Z" fill="#7b5903"/><path d="m217 195.4 60-3-61-67.5Z"/><path d="m1114 454.2-60-66.5-7 76.5Z" fill="#6f4e03"/><path d="m1115 327.3 70-60.5-69-11Z" fill="#7b5903"/><path d="m216 124.9 61 67.5 7-69.5Z"/><path d="m914 720 62-69.5-66-1ZM217 195.4l-14 65.4 80-2Z" fill="#6f4e03"/><path d="m1187 203.4-64-12-7 64.4Z" fill="#4c3000"/><path d="m1116 255.8 7-64.4-79 1Z" fill="#2a0700"/><path d="m1052 650.5-8-68.4-65 14ZM1056 527.6l58-73.4-67 10Z" fill="#412600"/><path d="m1126 517.6-12-63.4-58 73.4ZM136 384.7l68 11 6-63.4Z" fill="#301300"/><path d="m210 332.3-6 63.4 71-2Z" fill="#2a0700"/><path d="m274 655.5 82 3-7-72.4Z" fill="#7b5903"/><path d="m273 587.1 76-1-70-61.5Z" fill="#381d00"/><path d="m204 395.7 13 57.5 58-59.5Z" fill="#7b5903"/><path d="m1123 191.4-6-56.5-73 57.5Z"/><path d="m1049 70.5 5-70.5h-71ZM208 59.5l8 65.4 69-57.4Z" fill="#412600"/><path d="m285 67.5-69 57.4 68-2Z" fill="#2a0700"/><path d="m143 190.4-3 74.4 63-4Z" fill="#301300"/><path d="M841 720h73l-72-65.5Z" fill="#2a0700"/><path d="m1118 589.1-62-61.5-12 54.5ZM356 0h-71l67 57.5Z" fill="#301300"/><path d="m356 658.5 64 61.5-1-63.5Z" fill="#7b5903"/><path d="M1121 68.5 1054 0l-5 70.5ZM205 524.6l68 62.5 6-62.5Z" fill="#583a02"/><path d="m356 658.5-1 61.5h65Z" fill="#2a0700"/><path d="m1052 650.5-73-54.4-3 54.4Z" fill="#412600"/><path d="m1118 589.1 8-71.5-70 10Z" fill="#7b5903"/><path d="m1192 394.7-2-75.4-69 69.4Z" fill="#301300"/><path d="m1190 319.3-5-52.5-70 60.5Z" fill="#412600"/><path d="m1192 134.9-71-66.4-4 66.4Z" fill="#2a0700"/><path d="m1117 134.9 4-66.4-73 57.4Z" fill="#412600"/><path d="m144 456.2 61 68.4 12-71.4Z" fill="#6f4e03"/><path d="m217 453.2-12 71.4h74Z" fill="#6f4e03"/><path d="m1190 319.3-75 8 6 61.4ZM1123 191.4l69-56.5h-75Z"/><path d="m1050 720 2-69.5h-76Z" fill="#644403"/><path d="m285 0-77 59.5 77 8Z" fill="#381d00"/><path d="m143 190.4 60 70.4 14-65.4Z" fill="#644403"/><path d="M914 720h62v-69.5Z" fill="#876403"/><path d="m1192 394.7-71-6 61 71.5Z" fill="#301300"/><path d="m274 655.5 75-69.4-76 1Z" fill="#4c3000"/><path d="M275 720h80l1-61.5Z" fill="#2a0700"/><path d="m1256 267.8-69-64.4-2 63.4Z" fill="#6f4e03"/><path d="m1185 266.8 2-63.4-71 52.4Z"/><path d="m143 190.4 74 5-1-70.5Z" fill="#301300"/><path d="m203 260.8-63 4 70 67.5Z" fill="#876403"/><path d="m204 395.7-60 60.5 73-3Z" fill="#381d00"/><path d="m213 652.5 61 3-1-68.4Z"/><path d="m1182 460.2-61-71.5-7 65.5Z" fill="#412600"/><path d="m1259 192.4-67-57.5-5 68.5Z" fill="#6f4e03"/><path d="m1052 650.5 66-61.4-74-7Z" fill="#412600"/><path d="m1126 517.6 56-57.4-68-6Z" fill="#644403"/><path d="m140 264.8-6 69.5 76-2Z"/><path d="m132 136.9 11 53.5 73-65.5Z" fill="#583a02"/><path d="m140 264.8-68 54.5 62 15Z" fill="#876403"/><path d="m1193 517.6-11-57.4-56 57.4Z" fill="#381d00"/><path d="m134 334.3 2 50.4 74-52.4Z" fill="#2a0700"/><path d="M1182 0h-62l1 68.5Z" fill="#7b5903"/><path d="M1121 68.5 1120 0h-66Z" fill="#644403"/><path d="m140 530.6 65 58.5v-64.5Z" fill="#583a02"/><path d="M205 524.6v64.5l68-2ZM136 384.7l8 71.5 60-60.5Z" fill="#381d00"/><path d="m1256 267.8-71-1 5 52.5Z"/><path d="m1187 203.4 5-68.5-69 56.5Z" fill="#412600"/><path d="M285 0h-78l1 59.5Z" fill="#7b5903"/><path d="m147 57.5-15 79.4 84-12Z" fill="#6f4e03"/><path d="m147 57.5 69 67.4-8-65.4Z" fill="#4c3000"/><path d="m73 200.4 3 60.4 64 4ZM976 720h74l-74-69.5Z" fill="#301300"/><path d="m1052 650.5 73 4-7-65.4Z" fill="#6f4e03"/><path d="m1191 590.1-65-72.5-8 71.5Z" fill="#876403"/><path d="m1191 590.1 2-72.5h-67Z" fill="#6f4e03"/><path d="m1260 389.7-6-68.4-62 73.4Z" fill="#7b5903"/><path d="m1192 394.7 62-73.4-64-2Z"/><path d="m1192 134.9-6-69.4-65 3Z" fill="#7b5903"/><path d="m207 0-60 57.5 61 2Z" fill="#301300"/><path d="m274 655.5 1 64.5 81-61.5Z" fill="#876403"/><path d="m213 652.5 62 67.5-1-64.5Z" fill="#4c3000"/><path d="m137 657.5 76-5-8-63.4Z" fill="#2a0700"/><path d="m205 589.1 8 63.4 60-65.4Z" fill="#381d00"/><path d="m144 456.2-4 74.4 65-6Z"/><path d="m77 462.2 63 68.4 4-74.4Z" fill="#2a0700"/><path d="m72 391.7 72 64.5-8-71.5Z" fill="#876403"/><path d="m1119 720 6-65.5-73-4Z" fill="#412600"/><path d="m1260 389.7-68 5 64 65.5Z"/><path d="m1192 134.9 70-66.4-76-3Z" fill="#876403"/><path d="m1254 321.3 2-53.5-66 51.5Z" fill="#381d00"/><path d="m73 200.4 70-10-11-53.5Z" fill="#583a02"/><path d="m73 200.4 67 64.4 3-74.4Z" fill="#6f4e03"/><path d="m134 334.3-62 57.4 64-7Z" fill="#583a02"/><path d="M1267 0h-85l4 65.5Z"/><path d="M1186 65.5 1182 0l-61 68.5Z" fill="#412600"/><path d="m76 260.8-4 58.5 68-54.5Z" fill="#301300"/><path d="m1125 654.5 66-64.4-73-1Z" fill="#583a02"/><path d="m1256 460.2-64-65.5-10 65.5Z" fill="#412600"/><path d="M1256 460.2h-74l11 57.4Z" fill="#644403"/><path d="m1254 321.3 71-55.5-69 2Z" fill="#7b5903"/><path d="m1325 265.8-66-73.4-3 75.4Z"/><path d="m1256 267.8 3-75.4-72 11ZM70 587.1l69-4 1-52.5Z" fill="#381d00"/><path d="m140 530.6-1 52.5 66 6Z" fill="#4c3000"/><path d="m213 652.5-7 67.5h69Z" fill="#301300"/><path d="M72 319.3v72.4l62-57.4ZM63 131.9l10 68.5 59-63.5ZM0 266.8v65.5l72-13Z"/><path d="m1255 527.6 1-67.4-63 57.4ZM207 0h-69l9 57.5Z" fill="#583a02"/><path d="m67 57.5-4 74.4 69 5Z" fill="#6f4e03"/><path d="m72 391.7 5 70.5 67-6Z" fill="#301300"/><path d="m1125 654.5 60 6 6-70.4Z" fill="#644403"/><path d="M1050 720h69l-67-69.5Z" fill="#876403"/><path d="m1326 196.4-63-60.5-4 56.5Z" fill="#412600"/><path d="m1259 192.4 4-56.5-71-1Z" fill="#876403"/><path d="m137 657.5 68-68.4-66-6Z" fill="#381d00"/><path d="m137 657.5 69 62.5 7-67.5Z" fill="#583a02"/><path d="m67 57.5 65 79.4 15-79.4Z" fill="#4c3000"/><path d="m0 266.8 72 52.5 4-58.5Z" fill="#7b5903"/><path d="m72 319.3-72 13 72 59.4Z" fill="#4c3000"/><path d="m1260 587.1-5-59.5-64 62.5Z" fill="#644403"/><path d="m1191 590.1 64-62.5-62-10Z" fill="#301300"/><path d="m1331 334.3-77-13 6 68.4ZM1119 720l66-59.5-60-6Z" fill="#583a02"/><path d="m77 462.2-5 60.4 68 8Z" fill="#4c3000"/><path d="m0 461.2 72 61.4 5-60.4Z" fill="#583a02"/><path d="m70 587.1 2-64.5-72 3Z" fill="#4c3000"/><path d="m1263 135.9-1-67.4-70 66.4Z" fill="#6f4e03"/><path d="m75 649.5 62 8 2-74.4Z" fill="#301300"/><path d="M138 0 67 57.5h80Z" fill="#6f4e03"/><path d="m1255 647.5 5-60.4-69 3Z" fill="#412600"/><path d="m1331 334.3-71 55.4 67 8ZM1331 334.3l-6-68.5-71 55.5Z" fill="#583a02"/><path d="m1260 389.7-4 70.5 71-62.5Z" fill="#583a02"/><path d="m1263 135.9 63-68.4-64 1Z" fill="#876403"/><path d="m1327 397.7-71 62.5 71 2Z" fill="#2a0700"/><path d="m0 399.7 77 62.5-5-70.5ZM72 522.6l-2 64.5 70-56.5Z" fill="#876403"/><path d="m1336 126.9-10 69.5 74-8ZM1325 265.8l1-69.4-67-4Z" fill="#412600"/><path d="m1327 462.2-71-2 67 59.4Z"/><path d="m1185 660.5 70-13-64-57.4Z" fill="#6f4e03"/><path d="M1119 720h67l-1-59.5ZM76 260.8l-3-60.4-73 2Z" fill="#381d00"/><path d="m0 266.8 76-6-76-58.4Z" fill="#412600"/><path d="m0 202.4 73-2-10-68.5Z" fill="#2a0700"/><path d="M1326 67.5 1267 0l-5 68.5Z" fill="#6f4e03"/><path d="m1262 68.5 5-68.5-81 65.5Z" fill="#301300"/><path d="M76 720h67l-6-62.5Z" fill="#6f4e03"/><path d="m137 657.5 6 62.5h63Z" fill="#301300"/><path d="M138 0H66l1 57.5Z" fill="#7b5903"/><path d="M0 128.9v73.5l63-70.5Z" fill="#2a0700"/><path d="m0 128.9 63 3L0 65.5Z" fill="#301300"/><path d="M0 332.3v67.4l72-8Z" fill="#6f4e03"/><path d="m1323 519.6-67-59.4-1 67.4Z"/><path d="M1400 395.7v-67.4l-69 6Z" fill="#876403"/><path d="m1266 720-11-72.5-70 13Z" fill="#301300"/><path d="M1323 581.1v-61.5l-68 8ZM0 399.7v61.5l77 1Z" fill="#876403"/><path d="m70 587.1 5 62.4 64-66.4Z" fill="#6f4e03"/><path d="m0 654.5 75-5-5-62.4Z" fill="#644403"/><path d="m1400 261.8-74-65.4-1 69.4Z"/><path d="m1326 196.4 10-69.5-73 9Z" fill="#876403"/><path d="m0 65.5 63 66.4 4-74.4Z" fill="#7b5903"/><path d="m1323 581.1-68-53.5 5 59.5Z" fill="#583a02"/><path d="m1336 126.9-10-59.4-63 68.4Z" fill="#876403"/><path d="M0 461.2v64.4l72-3Z" fill="#2a0700"/><path d="M0 0v65.5l67-8Z" fill="#301300"/><path d="m1330 648.5-70-61.4-5 60.4Z"/><path d="m1330 648.5-7-67.4-63 6Z" fill="#4c3000"/><path d="m1400 395.7-73 2 73 64.5Z"/><path d="M0 654.5 76 720l-1-70.5Z" fill="#4c3000"/><path d="m75 649.5 1 70.5 61-62.5Z" fill="#381d00"/><path d="M0 525.6v61.5h70Z" fill="#583a02"/><path d="M1400 64.5 1332 0l-6 67.5Z" fill="#381d00"/><path d="m1326 67.5 6-67.5h-65Z" fill="#7b5903"/><path d="M1186 720h80l-81-59.5Z" fill="#583a02"/><path d="m1400 395.7-69-61.4-4 63.4Z" fill="#412600"/><path d="m1331 334.3 69-6-75-62.5Z" fill="#583a02"/><path d="m1336 126.9 64-62.4-74 3Z" fill="#4c3000"/><path d="M1327 397.7v64.5h73Z" fill="#583a02"/><path d="M1400 328.3v-66.5l-75 4Z"/><path d="M66 0H0l67 57.5Z" fill="#301300"/><path d="M1400 462.2h-73l73 59.4Z" fill="#876403"/><path d="m1327 462.2-4 57.4 77 2Z"/><path d="M1400 261.8v-73.4l-74 8Z" fill="#301300"/><path d="m1266 720 64-71.5-75-1Z" fill="#876403"/><path d="m1400 521.6-77-2v61.5Z" fill="#644403"/><path d="M1400 188.4v-57.5l-64-4Z" fill="#7b5903"/><path d="M0 587.1v67.4l70-67.4Z" fill="#2a0700"/><path d="M1400 590.1v-68.5l-77 59.5Z" fill="#6f4e03"/><path d="M1400 130.9V64.5l-64 62.4Z"/><path d="M1266 720h58l6-71.5Z" fill="#583a02"/><path d="m1330 648.5 70-58.4-77-9Z" fill="#7b5903"/><path d="M1400 649.5v-59.4l-70 58.4Z" fill="#2a0700"/><path d="M0 654.5V720h76Z" fill="#876403"/><path d="M1400 64.5V0h-68Z" fill="#583a02"/><path d="M1400 720v-70.5l-70-1Z" fill="#2a0700"/><path d="M1324 720h76l-70-71.5Z" fill="#4c3000"/></g></svg>