<svg id="visual" viewBox="0 0 1400 720" width="1400" height="720" xmlns="http://www.w3.org/2000/svg" xmlns:xlink="http://www.w3.org/1999/xlink" version="1.1"><g stroke-width="40" stroke-linejoin="bevel"><path d="M701 327.3L693 265.8L637 328.3Z" fill="#381d00" stroke="#000"></path><path d="M693 265.8L637 264.8L637 328.3Z" fill="#6f4e03" stroke="#000"></path><path d="M556 327.3L627 389.7L637 328.3Z" fill="#6f4e03" stroke="#000"></path><path d="M637 328.3L706 395.7L701 327.3Z" fill="#876403" stroke="#000"></path><path d="M627 389.7L706 395.7L637 328.3Z" fill="#6f4e03" stroke="#000"></path><path d="M706 395.7L768 331.3L701 327.3Z" fill="#876403" stroke="#000"></path><path d="M701 327.3L770 260.8L693 265.8Z" fill="#301300" stroke="#000"></path><path d="M770 260.8L695 199.4L693 265.8Z" fill="#2a0700" stroke="#000"></path><path d="M693 265.8L695 199.4L637 264.8Z" fill="#644403" stroke="#000"></path><path d="M768 331.3L770 260.8L701 327.3Z" fill="#412600" stroke="#000"></path><path d="M695 199.4L637 193.4L637 264.8Z" fill="#301300" stroke="#000"></path><path d="M559 262.8L556 327.3L637 328.3Z" fill="#644403" stroke="#000"></path><path d="M559 262.8L637 328.3L637 264.8Z" fill="#4c3000" stroke="#000"></path><path d="M637 193.4L559 262.8L637 264.8Z" fill="#2a0700" stroke="#000"></path><path d="M706 395.7L774 391.7L768 331.3Z" fill="#000000" stroke="#000"></path><path d="M768 331.3L832 321.3L770 260.8Z" fill="#583a02" stroke="#000"></path><path d="M556 327.3L555 387.7L627 389.7Z" fill="#2a0700" stroke="#000"></path><path d="M627 456.2L704 457.2L706 395.7Z" fill="#381d00" stroke="#000"></path><path d="M770 260.8L767 194.4L695 199.4Z" fill="#412600" stroke="#000"></path><path d="M695 199.4L704 127.9L637 193.4Z" fill="#301300" stroke="#000"></path><path d="M637 193.4L554 193.4L559 262.8Z" fill="#4c3000" stroke="#000"></path><path d="M559 262.8L493 333.3L556 327.3Z" fill="#6f4e03" stroke="#000"></path><path d="M556 327.3L493 333.3L555 387.7Z" fill="#381d00" stroke="#000"></path><path d="M627 456.2L706 395.7L627 389.7Z" fill="#876403" stroke="#000"></path><path d="M706 395.7L767 451.2L774 391.7Z" fill="#000000" stroke="#000"></path><path d="M560 462.2L627 456.2L627 389.7Z" fill="#644403" stroke="#000"></path><path d="M774 391.7L832 321.3L768 331.3Z" fill="#6f4e03" stroke="#000"></path><path d="M770 260.8L841 200.4L767 194.4Z" fill="#412600" stroke="#000"></path><path d="M767 194.4L704 127.9L695 199.4Z" fill="#644403" stroke="#000"></path><path d="M637 193.4L626 125.9L554 193.4Z" fill="#7b5903" stroke="#000"></path><path d="M832 321.3L841 259.8L770 260.8Z" fill="#301300" stroke="#000"></path><path d="M767 194.4L764 127.9L704 127.9Z" fill="#2a0700" stroke="#000"></path><path d="M483 261.8L493 333.3L559 262.8Z" fill="#2a0700" stroke="#000"></path><path d="M555 387.7L560 462.2L627 389.7Z" fill="#876403" stroke="#000"></path><path d="M704 127.9L626 125.9L637 193.4Z" fill="#583a02" stroke="#000"></path><path d="M704 457.2L767 451.2L706 395.7Z" fill="#412600" stroke="#000"></path><path d="M774 391.7L841 387.7L832 321.3Z" fill="#301300" stroke="#000"></path><path d="M493 195.4L483 261.8L559 262.8Z" fill="#4c3000" stroke="#000"></path><path d="M836 463.2L841 387.7L774 391.7Z" fill="#4c3000" stroke="#000"></path><path d="M832 321.3L908 329.3L841 259.8Z" fill="#000000" stroke="#000"></path><path d="M495 460.2L560 462.2L555 387.7Z" fill="#6f4e03" stroke="#000"></path><path d="M627 456.2L627 519.6L704 457.2Z" fill="#583a02" stroke="#000"></path><path d="M841 200.4L764 127.9L767 194.4Z" fill="#876403" stroke="#000"></path><path d="M704 127.9L694 58.5L626 125.9Z" fill="#6f4e03" stroke="#000"></path><path d="M841 259.8L841 200.4L770 260.8Z" fill="#4c3000" stroke="#000"></path><path d="M484 136.9L493 195.4L554 193.4Z" fill="#6f4e03" stroke="#000"></path><path d="M554 193.4L493 195.4L559 262.8Z" fill="#301300" stroke="#000"></path><path d="M626 125.9L555 127.9L554 193.4Z" fill="#301300" stroke="#000"></path><path d="M424 321.3L482 395.7L493 333.3Z" fill="#7b5903" stroke="#000"></path><path d="M493 333.3L482 395.7L555 387.7Z" fill="#412600" stroke="#000"></path><path d="M561 530.6L627 519.6L560 462.2Z" fill="#412600" stroke="#000"></path><path d="M560 462.2L627 519.6L627 456.2Z" fill="#7b5903" stroke="#000"></path><path d="M704 457.2L762 523.6L767 451.2Z" fill="#4c3000" stroke="#000"></path><path d="M627 519.6L703 526.6L704 457.2Z" fill="#7b5903" stroke="#000"></path><path d="M767 451.2L836 463.2L774 391.7Z" fill="#876403" stroke="#000"></path><path d="M762 523.6L836 463.2L767 451.2Z" fill="#412600" stroke="#000"></path><path d="M482 395.7L495 460.2L555 387.7Z" fill="#6f4e03" stroke="#000"></path><path d="M916 399.7L908 329.3L841 387.7Z" fill="#381d00" stroke="#000"></path><path d="M841 387.7L908 329.3L832 321.3Z" fill="#2a0700" stroke="#000"></path><path d="M841 259.8L910 195.4L841 200.4Z" fill="#6f4e03" stroke="#000"></path><path d="M703 526.6L762 523.6L704 457.2Z" fill="#876403" stroke="#000"></path><path d="M772 69.5L704 127.9L764 127.9Z" fill="#000000" stroke="#000"></path><path d="M772 69.5L694 58.5L704 127.9Z" fill="#4c3000" stroke="#000"></path><path d="M626 125.9L563 72.5L555 127.9Z" fill="#644403" stroke="#000"></path><path d="M694 58.5L626 59.5L626 125.9Z" fill="#876403" stroke="#000"></path><path d="M412 266.8L424 321.3L483 261.8Z" fill="#412600" stroke="#000"></path><path d="M483 261.8L424 321.3L493 333.3Z" fill="#4c3000" stroke="#000"></path><path d="M482 395.7L413 450.2L495 460.2Z" fill="#876403" stroke="#000"></path><path d="M555 127.9L484 136.9L554 193.4Z" fill="#412600" stroke="#000"></path><path d="M413 203.4L412 266.8L483 261.8Z" fill="#2a0700" stroke="#000"></path><path d="M496 59.5L484 136.9L555 127.9Z" fill="#583a02" stroke="#000"></path><path d="M908 329.3L913 267.8L841 259.8Z" fill="#7b5903" stroke="#000"></path><path d="M841 200.4L847 123.9L764 127.9Z" fill="#301300" stroke="#000"></path><path d="M910 195.4L847 123.9L841 200.4Z" fill="#2a0700" stroke="#000"></path><path d="M626 59.5L563 72.5L626 125.9Z" fill="#4c3000" stroke="#000"></path><path d="M847 123.9L772 69.5L764 127.9Z" fill="#301300" stroke="#000"></path><path d="M495 460.2L561 530.6L560 462.2Z" fill="#4c3000" stroke="#000"></path><path d="M627 519.6L635 584.1L703 526.6Z" fill="#4c3000" stroke="#000"></path><path d="M413 203.4L483 261.8L493 195.4Z" fill="#7b5903" stroke="#000"></path><path d="M913 267.8L910 195.4L841 259.8Z" fill="#4c3000" stroke="#000"></path><path d="M424 321.3L424 397.7L482 395.7Z" fill="#2a0700" stroke="#000"></path><path d="M495 460.2L485 527.6L561 530.6Z" fill="#301300" stroke="#000"></path><path d="M351 319.3L424 397.7L424 321.3Z" fill="#644403" stroke="#000"></path><path d="M915 451.2L841 387.7L836 463.2Z" fill="#000000" stroke="#000"></path><path d="M915 451.2L916 399.7L841 387.7Z" fill="#2a0700" stroke="#000"></path><path d="M987 327.3L982 266.8L913 267.8Z" fill="#301300" stroke="#000"></path><path d="M484 136.9L413 203.4L493 195.4Z" fill="#4c3000" stroke="#000"></path><path d="M776 589.1L839 527.6L762 523.6Z" fill="#000000" stroke="#000"></path><path d="M762 523.6L839 527.6L836 463.2Z" fill="#301300" stroke="#000"></path><path d="M694 588.1L762 523.6L703 526.6Z" fill="#6f4e03" stroke="#000"></path><path d="M561 530.6L635 584.1L627 519.6Z" fill="#4c3000" stroke="#000"></path><path d="M635 584.1L694 588.1L703 526.6Z" fill="#6f4e03" stroke="#000"></path><path d="M907 530.6L915 451.2L836 463.2Z" fill="#381d00" stroke="#000"></path><path d="M847 123.9L834 62.5L772 69.5Z" fill="#876403" stroke="#000"></path><path d="M704 0L637 0L694 58.5Z" fill="#7b5903" stroke="#000"></path><path d="M905 62.5L834 62.5L847 123.9Z" fill="#583a02" stroke="#000"></path><path d="M419 520.6L485 527.6L495 460.2Z" fill="#301300" stroke="#000"></path><path d="M561 530.6L558 583.1L635 584.1Z" fill="#301300" stroke="#000"></path><path d="M557 0L496 59.5L563 72.5Z" fill="#2a0700" stroke="#000"></path><path d="M563 72.5L496 59.5L555 127.9Z" fill="#7b5903" stroke="#000"></path><path d="M484 136.9L422 128.9L413 203.4Z" fill="#301300" stroke="#000"></path><path d="M557 0L563 72.5L626 59.5Z" fill="#583a02" stroke="#000"></path><path d="M345 395.7L413 450.2L424 397.7Z" fill="#644403" stroke="#000"></path><path d="M424 397.7L413 450.2L482 395.7Z" fill="#301300" stroke="#000"></path><path d="M980 135.9L912 124.9L910 195.4Z" fill="#7b5903" stroke="#000"></path><path d="M910 195.4L912 124.9L847 123.9Z" fill="#876403" stroke="#000"></path><path d="M985 197.4L910 195.4L913 267.8Z" fill="#381d00" stroke="#000"></path><path d="M496 59.5L422 128.9L484 136.9Z" fill="#876403" stroke="#000"></path><path d="M704 0L694 58.5L768 0Z" fill="#000000" stroke="#000"></path><path d="M694 58.5L637 0L626 59.5Z" fill="#6f4e03" stroke="#000"></path><path d="M768 0L694 58.5L772 69.5Z" fill="#381d00" stroke="#000"></path><path d="M485 527.6L558 583.1L561 530.6Z" fill="#876403" stroke="#000"></path><path d="M635 584.1L694 654.5L694 588.1Z" fill="#6f4e03" stroke="#000"></path><path d="M694 588.1L776 589.1L762 523.6Z" fill="#2a0700" stroke="#000"></path><path d="M987 327.3L908 329.3L986 389.7Z" fill="#000000" stroke="#000"></path><path d="M987 327.3L913 267.8L908 329.3Z" fill="#4c3000" stroke="#000"></path><path d="M834 62.5L768 0L772 69.5Z" fill="#381d00" stroke="#000"></path><path d="M846 0L768 0L834 62.5Z" fill="#412600" stroke="#000"></path><path d="M413 203.4L354 263.8L412 266.8Z" fill="#644403" stroke="#000"></path><path d="M412 266.8L351 319.3L424 321.3Z" fill="#876403" stroke="#000"></path><path d="M346 188.4L354 263.8L413 203.4Z" fill="#876403" stroke="#000"></path><path d="M354 263.8L351 319.3L412 266.8Z" fill="#583a02" stroke="#000"></path><path d="M986 389.7L908 329.3L916 399.7Z" fill="#644403" stroke="#000"></path><path d="M637 0L557 0L626 59.5Z" fill="#7b5903" stroke="#000"></path><path d="M353 133.9L413 203.4L422 128.9Z" fill="#6f4e03" stroke="#000"></path><path d="M986 450.2L986 389.7L916 399.7Z" fill="#2a0700" stroke="#000"></path><path d="M986 450.2L916 399.7L915 451.2Z" fill="#2a0700" stroke="#000"></path><path d="M907 530.6L836 463.2L839 527.6Z" fill="#000000" stroke="#000"></path><path d="M843 591.1L907 530.6L839 527.6Z" fill="#6f4e03" stroke="#000"></path><path d="M1044 192.4L985 197.4L982 266.8Z" fill="#583a02" stroke="#000"></path><path d="M982 266.8L985 197.4L913 267.8Z" fill="#7b5903" stroke="#000"></path><path d="M345 519.6L419 520.6L413 450.2Z" fill="#4c3000" stroke="#000"></path><path d="M413 450.2L419 520.6L495 460.2Z" fill="#583a02" stroke="#000"></path><path d="M485 527.6L484 590.1L558 583.1Z" fill="#412600" stroke="#000"></path><path d="M973 64.5L905 62.5L912 124.9Z" fill="#7b5903" stroke="#000"></path><path d="M912 124.9L905 62.5L847 123.9Z" fill="#7b5903" stroke="#000"></path><path d="M273 321.3L345 395.7L351 319.3Z" fill="#876403" stroke="#000"></path><path d="M351 319.3L345 395.7L424 397.7Z" fill="#301300" stroke="#000"></path><path d="M842 654.5L843 591.1L776 589.1Z" fill="#412600" stroke="#000"></path><path d="M776 589.1L843 591.1L839 527.6Z" fill="#6f4e03" stroke="#000"></path><path d="M417 63.5L422 128.9L496 59.5Z" fill="#2a0700" stroke="#000"></path><path d="M353 133.9L346 188.4L413 203.4Z" fill="#876403" stroke="#000"></path><path d="M354 263.8L283 258.8L351 319.3Z" fill="#583a02" stroke="#000"></path><path d="M419 591.1L484 590.1L485 527.6Z" fill="#4c3000" stroke="#000"></path><path d="M558 583.1L622 648.5L635 584.1Z" fill="#7b5903" stroke="#000"></path><path d="M694 588.1L766 656.5L776 589.1Z" fill="#381d00" stroke="#000"></path><path d="M423 0L417 63.5L496 59.5Z" fill="#381d00" stroke="#000"></path><path d="M557 0L497 0L496 59.5Z" fill="#000000" stroke="#000"></path><path d="M905 62.5L846 0L834 62.5Z" fill="#000000" stroke="#000"></path><path d="M978 521.6L986 450.2L915 451.2Z" fill="#7b5903" stroke="#000"></path><path d="M1054 387.7L1055 329.3L987 327.3Z" fill="#644403" stroke="#000"></path><path d="M552 656.5L622 648.5L558 583.1Z" fill="#583a02" stroke="#000"></path><path d="M985 197.4L980 135.9L910 195.4Z" fill="#644403" stroke="#000"></path><path d="M905 62.5L913 0L846 0Z" fill="#301300" stroke="#000"></path><path d="M622 648.5L694 654.5L635 584.1Z" fill="#876403" stroke="#000"></path><path d="M345 395.7L346 451.2L413 450.2Z" fill="#2a0700" stroke="#000"></path><path d="M419 520.6L419 591.1L485 527.6Z" fill="#2a0700" stroke="#000"></path><path d="M417 63.5L353 133.9L422 128.9Z" fill="#583a02" stroke="#000"></path><path d="M694 654.5L766 656.5L694 588.1Z" fill="#381d00" stroke="#000"></path><path d="M484 590.1L552 656.5L558 583.1Z" fill="#000000" stroke="#000"></path><path d="M632 720L700 720L694 654.5Z" fill="#644403" stroke="#000"></path><path d="M694 654.5L700 720L766 656.5Z" fill="#4c3000" stroke="#000"></path><path d="M979 596.1L978 521.6L907 530.6Z" fill="#876403" stroke="#000"></path><path d="M907 530.6L978 521.6L915 451.2Z" fill="#6f4e03" stroke="#000"></path><path d="M913 596.1L907 530.6L843 591.1Z" fill="#876403" stroke="#000"></path><path d="M349 586.1L419 591.1L419 520.6Z" fill="#4c3000" stroke="#000"></path><path d="M484 590.1L482 653.5L552 656.5Z" fill="#4c3000" stroke="#000"></path><path d="M910 649.5L913 596.1L843 591.1Z" fill="#412600" stroke="#000"></path><path d="M980 135.9L973 64.5L912 124.9Z" fill="#4c3000" stroke="#000"></path><path d="M973 64.5L913 0L905 62.5Z" fill="#644403" stroke="#000"></path><path d="M1054 387.7L987 327.3L986 389.7Z" fill="#2a0700" stroke="#000"></path><path d="M987 327.3L1055 266.8L982 266.8Z" fill="#583a02" stroke="#000"></path><path d="M985 197.4L1044 192.4L980 135.9Z" fill="#876403" stroke="#000"></path><path d="M980 135.9L1049 70.5L973 64.5Z" fill="#000000" stroke="#000"></path><path d="M1054 387.7L986 389.7L986 450.2Z" fill="#381d00" stroke="#000"></path><path d="M277 192.4L283 258.8L346 188.4Z" fill="#2a0700" stroke="#000"></path><path d="M346 188.4L283 258.8L354 263.8Z" fill="#7b5903" stroke="#000"></path><path d="M345 395.7L275 393.7L346 451.2Z" fill="#301300" stroke="#000"></path><path d="M1055 329.3L1055 266.8L987 327.3Z" fill="#301300" stroke="#000"></path><path d="M497 0L423 0L496 59.5Z" fill="#2a0700" stroke="#000"></path><path d="M417 63.5L352 57.5L353 133.9Z" fill="#2a0700" stroke="#000"></path><path d="M284 122.9L277 192.4L346 188.4Z" fill="#876403" stroke="#000"></path><path d="M1055 266.8L1044 192.4L982 266.8Z" fill="#644403" stroke="#000"></path><path d="M278 462.2L345 519.6L346 451.2Z" fill="#4c3000" stroke="#000"></path><path d="M346 451.2L345 519.6L413 450.2Z" fill="#000000" stroke="#000"></path><path d="M766 656.5L842 654.5L776 589.1Z" fill="#583a02" stroke="#000"></path><path d="M1047 464.2L1054 387.7L986 450.2Z" fill="#4c3000" stroke="#000"></path><path d="M283 258.8L273 321.3L351 319.3Z" fill="#6f4e03" stroke="#000"></path><path d="M356 0L352 57.5L417 63.5Z" fill="#876403" stroke="#000"></path><path d="M419 656.5L482 653.5L419 591.1Z" fill="#7b5903" stroke="#000"></path><path d="M419 591.1L482 653.5L484 590.1Z" fill="#4c3000" stroke="#000"></path><path d="M273 321.3L275 393.7L345 395.7Z" fill="#7b5903" stroke="#000"></path><path d="M284 122.9L346 188.4L353 133.9Z" fill="#644403" stroke="#000"></path><path d="M203 260.8L210 332.3L273 321.3Z" fill="#4c3000" stroke="#000"></path><path d="M1056 527.6L1047 464.2L978 521.6Z" fill="#6f4e03" stroke="#000"></path><path d="M978 521.6L1047 464.2L986 450.2Z" fill="#301300" stroke="#000"></path><path d="M1044 192.4L1048 125.9L980 135.9Z" fill="#412600" stroke="#000"></path><path d="M973 64.5L983 0L913 0Z" fill="#000000" stroke="#000"></path><path d="M1117 134.9L1048 125.9L1044 192.4Z" fill="#876403" stroke="#000"></path><path d="M632 720L694 654.5L622 648.5Z" fill="#301300" stroke="#000"></path><path d="M766 656.5L841 720L842 654.5Z" fill="#4c3000" stroke="#000"></path><path d="M632 720L622 648.5L559 720Z" fill="#876403" stroke="#000"></path><path d="M559 720L622 648.5L552 656.5Z" fill="#2a0700" stroke="#000"></path><path d="M275 393.7L278 462.2L346 451.2Z" fill="#4c3000" stroke="#000"></path><path d="M345 519.6L349 586.1L419 520.6Z" fill="#301300" stroke="#000"></path><path d="M352 57.5L284 122.9L353 133.9Z" fill="#4c3000" stroke="#000"></path><path d="M842 654.5L910 649.5L843 591.1Z" fill="#644403" stroke="#000"></path><path d="M913 596.1L979 596.1L907 530.6Z" fill="#7b5903" stroke="#000"></path><path d="M914 720L910 649.5L842 654.5Z" fill="#301300" stroke="#000"></path><path d="M279 524.6L349 586.1L345 519.6Z" fill="#000000" stroke="#000"></path><path d="M976 650.5L979 596.1L913 596.1Z" fill="#7b5903" stroke="#000"></path><path d="M700 720L768 720L766 656.5Z" fill="#7b5903" stroke="#000"></path><path d="M423 0L356 0L417 63.5Z" fill="#7b5903" stroke="#000"></path><path d="M352 57.5L285 67.5L284 122.9Z" fill="#301300" stroke="#000"></path><path d="M486 720L559 720L552 656.5Z" fill="#381d00" stroke="#000"></path><path d="M486 720L552 656.5L482 653.5Z" fill="#2a0700" stroke="#000"></path><path d="M1049 70.5L983 0L973 64.5Z" fill="#412600" stroke="#000"></path><path d="M356 658.5L419 656.5L419 591.1Z" fill="#876403" stroke="#000"></path><path d="M1121 68.5L1049 70.5L1048 125.9Z" fill="#381d00" stroke="#000"></path><path d="M1048 125.9L1049 70.5L980 135.9Z" fill="#876403" stroke="#000"></path><path d="M1121 388.7L1115 327.3L1054 387.7Z" fill="#644403" stroke="#000"></path><path d="M1054 387.7L1115 327.3L1055 329.3Z" fill="#644403" stroke="#000"></path><path d="M1055 329.3L1115 327.3L1055 266.8Z" fill="#412600" stroke="#000"></path><path d="M1055 266.8L1116 255.8L1044 192.4Z" fill="#644403" stroke="#000"></path><path d="M285 0L285 67.5L352 57.5Z" fill="#7b5903" stroke="#000"></path><path d="M217 195.4L283 258.8L277 192.4Z" fill="#876403" stroke="#000"></path><path d="M1044 582.1L1056 527.6L978 521.6Z" fill="#2a0700" stroke="#000"></path><path d="M1114 454.2L1121 388.7L1054 387.7Z" fill="#583a02" stroke="#000"></path><path d="M278 462.2L279 524.6L345 519.6Z" fill="#7b5903" stroke="#000"></path><path d="M349 586.1L356 658.5L419 591.1Z" fill="#6f4e03" stroke="#000"></path><path d="M217 453.2L279 524.6L278 462.2Z" fill="#412600" stroke="#000"></path><path d="M1115 327.3L1116 255.8L1055 266.8Z" fill="#2a0700" stroke="#000"></path><path d="M768 720L841 720L766 656.5Z" fill="#000000" stroke="#000"></path><path d="M910 649.5L976 650.5L913 596.1Z" fill="#412600" stroke="#000"></path><path d="M979 596.1L1044 582.1L978 521.6Z" fill="#301300" stroke="#000"></path><path d="M420 720L482 653.5L419 656.5Z" fill="#000000" stroke="#000"></path><path d="M420 720L486 720L482 653.5Z" fill="#381d00" stroke="#000"></path><path d="M273 321.3L210 332.3L275 393.7Z" fill="#876403" stroke="#000"></path><path d="M275 393.7L217 453.2L278 462.2Z" fill="#6f4e03" stroke="#000"></path><path d="M203 260.8L273 321.3L283 258.8Z" fill="#7b5903" stroke="#000"></path><path d="M217 195.4L277 192.4L216 124.9Z" fill="#000000" stroke="#000"></path><path d="M1114 454.2L1054 387.7L1047 464.2Z" fill="#6f4e03" stroke="#000"></path><path d="M1115 327.3L1185 266.8L1116 255.8Z" fill="#7b5903" stroke="#000"></path><path d="M216 124.9L277 192.4L284 122.9Z" fill="#000000" stroke="#000"></path><path d="M914 720L976 650.5L910 649.5Z" fill="#6f4e03" stroke="#000"></path><path d="M217 195.4L203 260.8L283 258.8Z" fill="#6f4e03" stroke="#000"></path><path d="M1187 203.4L1123 191.4L1116 255.8Z" fill="#4c3000" stroke="#000"></path><path d="M1116 255.8L1123 191.4L1044 192.4Z" fill="#2a0700" stroke="#000"></path><path d="M1052 650.5L1044 582.1L979 596.1Z" fill="#412600" stroke="#000"></path><path d="M1056 527.6L1114 454.2L1047 464.2Z" fill="#412600" stroke="#000"></path><path d="M1126 517.6L1114 454.2L1056 527.6Z" fill="#301300" stroke="#000"></path><path d="M136 384.7L204 395.7L210 332.3Z" fill="#301300" stroke="#000"></path><path d="M210 332.3L204 395.7L275 393.7Z" fill="#2a0700" stroke="#000"></path><path d="M274 655.5L356 658.5L349 586.1Z" fill="#7b5903" stroke="#000"></path><path d="M273 587.1L349 586.1L279 524.6Z" fill="#381d00" stroke="#000"></path><path d="M204 395.7L217 453.2L275 393.7Z" fill="#7b5903" stroke="#000"></path><path d="M1123 191.4L1117 134.9L1044 192.4Z" fill="#000000" stroke="#000"></path><path d="M1049 70.5L1054 0L983 0Z" fill="#412600" stroke="#000"></path><path d="M208 59.5L216 124.9L285 67.5Z" fill="#412600" stroke="#000"></path><path d="M285 67.5L216 124.9L284 122.9Z" fill="#2a0700" stroke="#000"></path><path d="M143 190.4L140 264.8L203 260.8Z" fill="#301300" stroke="#000"></path><path d="M841 720L914 720L842 654.5Z" fill="#2a0700" stroke="#000"></path><path d="M1118 589.1L1056 527.6L1044 582.1Z" fill="#301300" stroke="#000"></path><path d="M356 0L285 0L352 57.5Z" fill="#301300" stroke="#000"></path><path d="M356 658.5L420 720L419 656.5Z" fill="#7b5903" stroke="#000"></path><path d="M1121 68.5L1054 0L1049 70.5Z" fill="#583a02" stroke="#000"></path><path d="M205 524.6L273 587.1L279 524.6Z" fill="#583a02" stroke="#000"></path><path d="M356 658.5L355 720L420 720Z" fill="#2a0700" stroke="#000"></path><path d="M1052 650.5L979 596.1L976 650.5Z" fill="#412600" stroke="#000"></path><path d="M1118 589.1L1126 517.6L1056 527.6Z" fill="#7b5903" stroke="#000"></path><path d="M1192 394.7L1190 319.3L1121 388.7Z" fill="#301300" stroke="#000"></path><path d="M1190 319.3L1185 266.8L1115 327.3Z" fill="#412600" stroke="#000"></path><path d="M1192 134.9L1121 68.5L1117 134.9Z" fill="#2a0700" stroke="#000"></path><path d="M1117 134.9L1121 68.5L1048 125.9Z" fill="#412600" stroke="#000"></path><path d="M144 456.2L205 524.6L217 453.2Z" fill="#6f4e03" stroke="#000"></path><path d="M217 453.2L205 524.6L279 524.6Z" fill="#6f4e03" stroke="#000"></path><path d="M1190 319.3L1115 327.3L1121 388.7Z" fill="#000000" stroke="#000"></path><path d="M1123 191.4L1192 134.9L1117 134.9Z" fill="#000000" stroke="#000"></path><path d="M1050 720L1052 650.5L976 650.5Z" fill="#644403" stroke="#000"></path><path d="M285 0L208 59.5L285 67.5Z" fill="#381d00" stroke="#000"></path><path d="M143 190.4L203 260.8L217 195.4Z" fill="#644403" stroke="#000"></path><path d="M914 720L976 720L976 650.5Z" fill="#876403" stroke="#000"></path><path d="M1192 394.7L1121 388.7L1182 460.2Z" fill="#301300" stroke="#000"></path><path d="M274 655.5L349 586.1L273 587.1Z" fill="#4c3000" stroke="#000"></path><path d="M275 720L355 720L356 658.5Z" fill="#2a0700" stroke="#000"></path><path d="M1256 267.8L1187 203.4L1185 266.8Z" fill="#6f4e03" stroke="#000"></path><path d="M1185 266.8L1187 203.4L1116 255.8Z" fill="#000000" stroke="#000"></path><path d="M143 190.4L217 195.4L216 124.9Z" fill="#301300" stroke="#000"></path><path d="M203 260.8L140 264.8L210 332.3Z" fill="#876403" stroke="#000"></path><path d="M204 395.7L144 456.2L217 453.2Z" fill="#381d00" stroke="#000"></path><path d="M213 652.5L274 655.5L273 587.1Z" fill="#000000" stroke="#000"></path><path d="M1182 460.2L1121 388.7L1114 454.2Z" fill="#412600" stroke="#000"></path><path d="M1259 192.4L1192 134.9L1187 203.4Z" fill="#6f4e03" stroke="#000"></path><path d="M1052 650.5L1118 589.1L1044 582.1Z" fill="#412600" stroke="#000"></path><path d="M1126 517.6L1182 460.2L1114 454.2Z" fill="#644403" stroke="#000"></path><path d="M140 264.8L134 334.3L210 332.3Z" fill="#000000" stroke="#000"></path><path d="M132 136.9L143 190.4L216 124.9Z" fill="#583a02" stroke="#000"></path><path d="M140 264.8L72 319.3L134 334.3Z" fill="#876403" stroke="#000"></path><path d="M1193 517.6L1182 460.2L1126 517.6Z" fill="#381d00" stroke="#000"></path><path d="M134 334.3L136 384.7L210 332.3Z" fill="#2a0700" stroke="#000"></path><path d="M1182 0L1120 0L1121 68.5Z" fill="#7b5903" stroke="#000"></path><path d="M1121 68.5L1120 0L1054 0Z" fill="#644403" stroke="#000"></path><path d="M140 530.6L205 589.1L205 524.6Z" fill="#583a02" stroke="#000"></path><path d="M205 524.6L205 589.1L273 587.1Z" fill="#381d00" stroke="#000"></path><path d="M136 384.7L144 456.2L204 395.7Z" fill="#381d00" stroke="#000"></path><path d="M1256 267.8L1185 266.8L1190 319.3Z" fill="#000000" stroke="#000"></path><path d="M1187 203.4L1192 134.9L1123 191.4Z" fill="#412600" stroke="#000"></path><path d="M285 0L207 0L208 59.5Z" fill="#7b5903" stroke="#000"></path><path d="M147 57.5L132 136.9L216 124.9Z" fill="#6f4e03" stroke="#000"></path><path d="M147 57.5L216 124.9L208 59.5Z" fill="#4c3000" stroke="#000"></path><path d="M73 200.4L76 260.8L140 264.8Z" fill="#301300" stroke="#000"></path><path d="M976 720L1050 720L976 650.5Z" fill="#301300" stroke="#000"></path><path d="M1052 650.5L1125 654.5L1118 589.1Z" fill="#6f4e03" stroke="#000"></path><path d="M1191 590.1L1126 517.6L1118 589.1Z" fill="#876403" stroke="#000"></path><path d="M1191 590.1L1193 517.6L1126 517.6Z" fill="#6f4e03" stroke="#000"></path><path d="M1260 389.7L1254 321.3L1192 394.7Z" fill="#7b5903" stroke="#000"></path><path d="M1192 394.7L1254 321.3L1190 319.3Z" fill="#000000" stroke="#000"></path><path d="M1192 134.9L1186 65.5L1121 68.5Z" fill="#7b5903" stroke="#000"></path><path d="M207 0L147 57.5L208 59.5Z" fill="#301300" stroke="#000"></path><path d="M274 655.5L275 720L356 658.5Z" fill="#876403" stroke="#000"></path><path d="M213 652.5L275 720L274 655.5Z" fill="#4c3000" stroke="#000"></path><path d="M137 657.5L213 652.5L205 589.1Z" fill="#2a0700" stroke="#000"></path><path d="M205 589.1L213 652.5L273 587.1Z" fill="#381d00" stroke="#000"></path><path d="M144 456.2L140 530.6L205 524.6Z" fill="#000000" stroke="#000"></path><path d="M77 462.2L140 530.6L144 456.2Z" fill="#2a0700" stroke="#000"></path><path d="M72 391.7L144 456.2L136 384.7Z" fill="#876403" stroke="#000"></path><path d="M1119 720L1125 654.5L1052 650.5Z" fill="#412600" stroke="#000"></path><path d="M1260 389.7L1192 394.7L1256 460.2Z" fill="#000000" stroke="#000"></path><path d="M1192 134.9L1262 68.5L1186 65.5Z" fill="#876403" stroke="#000"></path><path d="M1254 321.3L1256 267.8L1190 319.3Z" fill="#381d00" stroke="#000"></path><path d="M73 200.4L143 190.4L132 136.9Z" fill="#583a02" stroke="#000"></path><path d="M73 200.4L140 264.8L143 190.4Z" fill="#6f4e03" stroke="#000"></path><path d="M134 334.3L72 391.7L136 384.7Z" fill="#583a02" stroke="#000"></path><path d="M1267 0L1182 0L1186 65.5Z" fill="#000000" stroke="#000"></path><path d="M1186 65.5L1182 0L1121 68.5Z" fill="#412600" stroke="#000"></path><path d="M76 260.8L72 319.3L140 264.8Z" fill="#301300" stroke="#000"></path><path d="M1125 654.5L1191 590.1L1118 589.1Z" fill="#583a02" stroke="#000"></path><path d="M1256 460.2L1192 394.7L1182 460.2Z" fill="#412600" stroke="#000"></path><path d="M1256 460.2L1182 460.2L1193 517.6Z" fill="#644403" stroke="#000"></path><path d="M1254 321.3L1325 265.8L1256 267.8Z" fill="#7b5903" stroke="#000"></path><path d="M1325 265.8L1259 192.4L1256 267.8Z" fill="#000000" stroke="#000"></path><path d="M1256 267.8L1259 192.4L1187 203.4Z" fill="#381d00" stroke="#000"></path><path d="M70 587.1L139 583.1L140 530.6Z" fill="#381d00" stroke="#000"></path><path d="M140 530.6L139 583.1L205 589.1Z" fill="#4c3000" stroke="#000"></path><path d="M213 652.5L206 720L275 720Z" fill="#301300" stroke="#000"></path><path d="M72 319.3L72 391.7L134 334.3Z" fill="#000000" stroke="#000"></path><path d="M63 131.9L73 200.4L132 136.9Z" fill="#000000" stroke="#000"></path><path d="M0 266.8L0 332.3L72 319.3Z" fill="#000000" stroke="#000"></path><path d="M1255 527.6L1256 460.2L1193 517.6Z" fill="#583a02" stroke="#000"></path><path d="M207 0L138 0L147 57.5Z" fill="#583a02" stroke="#000"></path><path d="M67 57.5L63 131.9L132 136.9Z" fill="#6f4e03" stroke="#000"></path><path d="M72 391.7L77 462.2L144 456.2Z" fill="#301300" stroke="#000"></path><path d="M1125 654.5L1185 660.5L1191 590.1Z" fill="#644403" stroke="#000"></path><path d="M1050 720L1119 720L1052 650.5Z" fill="#876403" stroke="#000"></path><path d="M1326 196.4L1263 135.9L1259 192.4Z" fill="#412600" stroke="#000"></path><path d="M1259 192.4L1263 135.9L1192 134.9Z" fill="#876403" stroke="#000"></path><path d="M137 657.5L205 589.1L139 583.1Z" fill="#381d00" stroke="#000"></path><path d="M137 657.5L206 720L213 652.5Z" fill="#583a02" stroke="#000"></path><path d="M67 57.5L132 136.9L147 57.5Z" fill="#4c3000" stroke="#000"></path><path d="M0 266.8L72 319.3L76 260.8Z" fill="#7b5903" stroke="#000"></path><path d="M72 319.3L0 332.3L72 391.7Z" fill="#4c3000" stroke="#000"></path><path d="M1260 587.1L1255 527.6L1191 590.1Z" fill="#644403" stroke="#000"></path><path d="M1191 590.1L1255 527.6L1193 517.6Z" fill="#301300" stroke="#000"></path><path d="M1331 334.3L1254 321.3L1260 389.7Z" fill="#583a02" stroke="#000"></path><path d="M1119 720L1185 660.5L1125 654.5Z" fill="#583a02" stroke="#000"></path><path d="M77 462.2L72 522.6L140 530.6Z" fill="#4c3000" stroke="#000"></path><path d="M0 461.2L72 522.6L77 462.2Z" fill="#583a02" stroke="#000"></path><path d="M70 587.1L72 522.6L0 525.6Z" fill="#4c3000" stroke="#000"></path><path d="M1263 135.9L1262 68.5L1192 134.9Z" fill="#6f4e03" stroke="#000"></path><path d="M75 649.5L137 657.5L139 583.1Z" fill="#301300" stroke="#000"></path><path d="M138 0L67 57.5L147 57.5Z" fill="#6f4e03" stroke="#000"></path><path d="M1255 647.5L1260 587.1L1191 590.1Z" fill="#412600" stroke="#000"></path><path d="M1331 334.3L1260 389.7L1327 397.7Z" fill="#583a02" stroke="#000"></path><path d="M1331 334.3L1325 265.8L1254 321.3Z" fill="#583a02" stroke="#000"></path><path d="M1260 389.7L1256 460.2L1327 397.7Z" fill="#583a02" stroke="#000"></path><path d="M1263 135.9L1326 67.5L1262 68.5Z" fill="#876403" stroke="#000"></path><path d="M1327 397.7L1256 460.2L1327 462.2Z" fill="#2a0700" stroke="#000"></path><path d="M0 399.7L77 462.2L72 391.7Z" fill="#876403" stroke="#000"></path><path d="M72 522.6L70 587.1L140 530.6Z" fill="#876403" stroke="#000"></path><path d="M1336 126.9L1326 196.4L1400 188.4Z" fill="#412600" stroke="#000"></path><path d="M1325 265.8L1326 196.4L1259 192.4Z" fill="#412600" stroke="#000"></path><path d="M1327 462.2L1256 460.2L1323 519.6Z" fill="#000000" stroke="#000"></path><path d="M1185 660.5L1255 647.5L1191 590.1Z" fill="#6f4e03" stroke="#000"></path><path d="M1119 720L1186 720L1185 660.5Z" fill="#381d00" stroke="#000"></path><path d="M76 260.8L73 200.4L0 202.4Z" fill="#381d00" stroke="#000"></path><path d="M0 266.8L76 260.8L0 202.4Z" fill="#412600" stroke="#000"></path><path d="M0 202.4L73 200.4L63 131.9Z" fill="#2a0700" stroke="#000"></path><path d="M1326 67.5L1267 0L1262 68.5Z" fill="#6f4e03" stroke="#000"></path><path d="M1262 68.5L1267 0L1186 65.5Z" fill="#301300" stroke="#000"></path><path d="M76 720L143 720L137 657.5Z" fill="#6f4e03" stroke="#000"></path><path d="M137 657.5L143 720L206 720Z" fill="#301300" stroke="#000"></path><path d="M138 0L66 0L67 57.5Z" fill="#7b5903" stroke="#000"></path><path d="M0 128.9L0 202.4L63 131.9Z" fill="#2a0700" stroke="#000"></path><path d="M0 128.9L63 131.9L0 65.5Z" fill="#301300" stroke="#000"></path><path d="M0 332.3L0 399.7L72 391.7Z" fill="#6f4e03" stroke="#000"></path><path d="M1323 519.6L1256 460.2L1255 527.6Z" fill="#000000" stroke="#000"></path><path d="M1400 395.7L1400 328.3L1331 334.3Z" fill="#876403" stroke="#000"></path><path d="M1266 720L1255 647.5L1185 660.5Z" fill="#301300" stroke="#000"></path><path d="M1323 581.1L1323 519.6L1255 527.6Z" fill="#876403" stroke="#000"></path><path d="M0 399.7L0 461.2L77 462.2Z" fill="#876403" stroke="#000"></path><path d="M70 587.1L75 649.5L139 583.1Z" fill="#6f4e03" stroke="#000"></path><path d="M0 654.5L75 649.5L70 587.1Z" fill="#644403" stroke="#000"></path><path d="M1400 261.8L1326 196.4L1325 265.8Z" fill="#000000" stroke="#000"></path><path d="M1326 196.4L1336 126.9L1263 135.9Z" fill="#876403" stroke="#000"></path><path d="M0 65.5L63 131.9L67 57.5Z" fill="#7b5903" stroke="#000"></path><path d="M1323 581.1L1255 527.6L1260 587.1Z" fill="#583a02" stroke="#000"></path><path d="M1336 126.9L1326 67.5L1263 135.9Z" fill="#876403" stroke="#000"></path><path d="M0 461.2L0 525.6L72 522.6Z" fill="#2a0700" stroke="#000"></path><path d="M0 0L0 65.5L67 57.5Z" fill="#301300" stroke="#000"></path><path d="M1330 648.5L1260 587.1L1255 647.5Z" fill="#000000" stroke="#000"></path><path d="M1330 648.5L1323 581.1L1260 587.1Z" fill="#4c3000" stroke="#000"></path><path d="M1400 395.7L1327 397.7L1400 462.2Z" fill="#000000" stroke="#000"></path><path d="M0 654.5L76 720L75 649.5Z" fill="#4c3000" stroke="#000"></path><path d="M75 649.5L76 720L137 657.5Z" fill="#381d00" stroke="#000"></path><path d="M0 525.6L0 587.1L70 587.1Z" fill="#583a02" stroke="#000"></path><path d="M1400 64.5L1332 0L1326 67.5Z" fill="#381d00" stroke="#000"></path><path d="M1326 67.5L1332 0L1267 0Z" fill="#7b5903" stroke="#000"></path><path d="M1186 720L1266 720L1185 660.5Z" fill="#583a02" stroke="#000"></path><path d="M1400 395.7L1331 334.3L1327 397.7Z" fill="#412600" stroke="#000"></path><path d="M1331 334.3L1400 328.3L1325 265.8Z" fill="#583a02" stroke="#000"></path><path d="M1336 126.9L1400 64.5L1326 67.5Z" fill="#4c3000" stroke="#000"></path><path d="M1327 397.7L1327 462.2L1400 462.2Z" fill="#583a02" stroke="#000"></path><path d="M1400 328.3L1400 261.8L1325 265.8Z" fill="#000000" stroke="#000"></path><path d="M66 0L0 0L67 57.5Z" fill="#301300" stroke="#000"></path><path d="M1400 462.2L1327 462.2L1400 521.6Z" fill="#876403" stroke="#000"></path><path d="M1327 462.2L1323 519.6L1400 521.6Z" fill="#000000" stroke="#000"></path><path d="M1400 261.8L1400 188.4L1326 196.4Z" fill="#301300" stroke="#000"></path><path d="M1266 720L1330 648.5L1255 647.5Z" fill="#876403" stroke="#000"></path><path d="M1400 521.6L1323 519.6L1323 581.1Z" fill="#644403" stroke="#000"></path><path d="M1400 188.4L1400 130.9L1336 126.9Z" fill="#7b5903" stroke="#000"></path><path d="M0 587.1L0 654.5L70 587.1Z" fill="#2a0700" stroke="#000"></path><path d="M1400 590.1L1400 521.6L1323 581.1Z" fill="#6f4e03" stroke="#000"></path><path d="M1400 130.9L1400 64.5L1336 126.9Z" fill="#000000" stroke="#000"></path><path d="M1266 720L1324 720L1330 648.5Z" fill="#583a02" stroke="#000"></path><path d="M1330 648.5L1400 590.1L1323 581.1Z" fill="#7b5903" stroke="#000"></path><path d="M1400 649.5L1400 590.1L1330 648.5Z" fill="#2a0700" stroke="#000"></path><path d="M0 654.5L0 720L76 720Z" fill="#876403" stroke="#000"></path><path d="M1400 64.5L1400 0L1332 0Z" fill="#583a02" stroke="#000"></path><path d="M1400 720L1400 649.5L1330 648.5Z" fill="#2a0700" stroke="#000"></path><path d="M1324 720L1400 720L1330 648.5Z" fill="#4c3000" stroke="#000"></path></g></svg>